<svg xmlns="http://www.w3.org/2000/svg" xmlns:xlink="http://www.w3.org/1999/xlink" xmlns:lucid="lucid" width="171" height="169"><g transform="translate(-474 -595)" lucid:page-tab-id="0_0"><path d="M480 600h40v40h-40z" stroke="#3a414a" fill="#fff"/><use xlink:href="#a" transform="matrix(1,0,0,1,492,612) translate(-3.8518518518518494 14.222222222222221)"/><path d="M520 600h40v40h-40z" stroke="#3a414a" fill="#dfe3e8"/><use xlink:href="#b" transform="matrix(1,0,0,1,532,612) translate(2.0740740740740753 14.222222222222221)"/><path d="M560 600h40v40h-40z" stroke="#3a414a" fill="#fff"/><use xlink:href="#b" transform="matrix(1,0,0,1,572,612) translate(2.0740740740740753 14.222222222222221)"/><path d="M600 600h40v40h-40z" stroke="#3a414a" fill="#dfe3e8"/><use xlink:href="#b" transform="matrix(1,0,0,1,612,612) translate(2.0740740740740753 14.222222222222221)"/><path d="M480 640h40v40h-40z" stroke="#3a414a" fill="#dfe3e8"/><use xlink:href="#c" transform="matrix(1,0,0,1,492,652) translate(2.0740740740740753 14.222222222222221)"/><path d="M520 640h40v40h-40z" stroke="#3a414a" fill="#fff"/><use xlink:href="#b" transform="matrix(1,0,0,1,532,652) translate(2.0740740740740753 14.222222222222221)"/><path d="M560 640h40v40h-40z" stroke="#3a414a" fill="#dfe3e8"/><path d="M600 640h40v40h-40zM480 680h40v40h-40z" stroke="#3a414a" fill="#fff"/><use xlink:href="#c" transform="matrix(1,0,0,1,492,692) translate(2.0740740740740753 14.222222222222221)"/><path d="M520 680h40v40h-40z" stroke="#3a414a" fill="#dfe3e8"/><path d="M560 680h40v40h-40z" stroke="#3a414a" fill="#fff"/><use xlink:href="#b" transform="matrix(1,0,0,1,572,692) translate(2.0740740740740753 14.222222222222221)"/><path d="M600 680h40v40h-40zM480 720h40v40h-40z" stroke="#3a414a" fill="#dfe3e8"/><use xlink:href="#c" transform="matrix(1,0,0,1,492,732) translate(2.0740740740740753 14.222222222222221)"/><path d="M520 720h40v40h-40z" stroke="#3a414a" fill="#fff"/><path d="M560 720h40v40h-40z" stroke="#3a414a" fill="#dfe3e8"/><path d="M600 720h40v40h-40z" stroke="#3a414a" fill="#fff"/><use xlink:href="#b" transform="matrix(1,0,0,1,612,732) translate(2.0740740740740753 14.222222222222221)"/><defs><path fill="#3a414a" d="M140-251c81 0 123 46 123 126C263-53 228-8 163 1c7 30 30 48 69 40v23c-55 16-95-15-103-61C56-3 17-48 17-125c0-80 42-126 123-126zm0 227c63 0 89-41 89-101s-29-99-89-99c-61 0-89 39-89 99S79-25 140-24" id="d"/><path fill="#3a414a" d="M27 0v-27h64v-190l-56 39v-29l58-41h29v221h61V0H27" id="e"/><g id="a"><use transform="matrix(0.049382716049382706,0,0,0.049382716049382706,0,0)" xlink:href="#d"/><use transform="matrix(0.049382716049382706,0,0,0.049382716049382706,13.827160493827158,0)" xlink:href="#e"/></g><path fill="#e81313" d="M195 0l-74-108L45 0H8l94-129-87-119h37l69 98 67-98h37l-84 118L233 0h-38" id="f"/><use transform="matrix(0.049382716049382706,0,0,0.049382716049382706,0,0)" xlink:href="#f" id="b"/><path fill="#3a414a" d="M195 0l-74-108L45 0H8l94-129-87-119h37l69 98 67-98h37l-84 118L233 0h-38" id="g"/><use transform="matrix(0.049382716049382706,0,0,0.049382716049382706,0,0)" xlink:href="#g" id="c"/></defs></g></svg>