<?xml version="1.0" standalone="no"?>
<!DOCTYPE svg PUBLIC "-//W3C//DTD SVG 20010904//EN"
 "http://www.w3.org/TR/2001/REC-SVG-20010904/DTD/svg10.dtd">
<svg version="1.0" xmlns="http://www.w3.org/2000/svg"
 width="466.000000pt" height="466.000000pt" viewBox="0 0 466.000000 466.000000"
 preserveAspectRatio="xMidYMid meet">
<metadata>
Created by potrace 1.14, written by Peter Selinger 2001-2017
</metadata>
<g transform="translate(0.000000,466.000000) scale(0.100000,-0.100000)"
fill="#000000" stroke="none">
<path d="M400 4082 l0 -578 118 -18 c172 -26 177 -25 175 2 -3 29 0 28 37 -8
28 -28 37 -30 88 -28 32 1 62 -1 69 -5 6 -4 16 0 23 8 16 19 31 19 24 0 -4
-10 3 -16 23 -20 15 -3 36 -10 45 -16 38 -20 51 -12 44 29 l-7 37 17 -25 c36
-56 103 -57 102 0 -1 17 -5 33 -10 36 -15 9 3 25 22 19 25 -8 23 29 -3 53 -18
16 -20 16 -32 -1 -15 -21 -45 -23 -45 -2 0 8 9 15 20 15 24 0 27 15 4 24 -36
14 -89 -49 -77 -92 3 -12 1 -22 -5 -22 -20 0 -21 17 -5 74 9 31 14 58 12 60
-16 13 -60 14 -73 1 -19 -20 -23 -19 -29 5 -3 12 -14 20 -25 20 -27 0 -114 44
-105 53 3 4 -2 7 -13 7 -16 0 -17 2 -4 10 13 8 13 11 -2 27 -17 16 -19 16 -32
-2 -8 -11 -18 -16 -22 -12 -5 4 -2 12 6 17 8 5 11 12 7 16 -4 4 -14 -2 -23
-14 -14 -20 -54 -31 -54 -14 1 12 37 52 48 52 5 0 12 6 15 14 5 14 -93 66
-125 66 -9 0 -18 7 -22 15 -3 8 -12 15 -21 15 -8 0 -15 5 -15 10 0 14 5 13 66
-15 30 -14 59 -25 64 -25 5 0 35 -12 67 -26 32 -14 74 -28 93 -30 19 -3 37
-10 41 -15 4 -6 16 -8 28 -4 11 3 21 2 21 -3 0 -5 17 -13 37 -17 29 -5 40 -3
50 11 12 17 14 17 27 -1 8 -12 20 -16 35 -12 16 4 21 1 21 -13 0 -16 6 -18 34
-13 19 3 36 1 40 -6 4 -6 14 -11 23 -11 11 0 8 6 -10 20 -14 11 -30 20 -36 20
-6 0 -11 6 -11 14 0 19 -42 47 -115 75 -33 13 -67 30 -76 37 -8 8 -21 14 -27
14 -7 0 -12 4 -12 9 0 5 -10 11 -22 14 -12 4 -19 9 -15 13 6 7 40 -5 77 -27 8
-5 26 -14 40 -20 101 -46 131 -62 137 -72 11 -17 68 -55 98 -67 14 -5 25 -15
25 -21 0 -15 84 -6 105 11 17 14 20 50 4 50 -6 0 -9 -6 -6 -14 5 -12 -11 -26
-29 -26 -3 0 -4 17 -2 38 2 20 8 36 13 35 23 -4 9 39 -22 69 -30 29 -36 31
-54 20 -12 -8 -33 -10 -54 -6 -35 6 -49 24 -20 24 18 0 20 21 3 38 -15 15 -4
26 18 18 12 -5 14 -13 10 -34 -6 -26 -6 -26 9 -8 23 30 18 116 -6 116 -5 0 -8
-3 -7 -7 1 -5 -4 -18 -11 -31 -12 -22 -14 -23 -31 -7 -16 14 -19 14 -33 0 -9
-8 -26 -15 -38 -15 l-23 0 23 21 c28 26 24 52 -9 59 -19 4 -25 11 -25 30 0 18
-5 25 -20 25 -19 1 -81 54 -228 198 -67 65 -87 98 -34 57 24 -19 57 -27 57
-13 0 4 -10 17 -22 30 -12 13 -18 26 -14 30 4 4 10 3 14 -2 4 -6 20 -21 35
-35 24 -21 30 -22 38 -10 8 13 10 13 19 0 40 -63 76 -80 82 -39 2 17 10 10 38
-35 19 -30 42 -55 49 -56 12 0 12 -3 3 -12 -17 -17 -15 -28 6 -28 9 0 23 -9
30 -20 7 -11 30 -27 51 -36 30 -12 38 -20 34 -34 -7 -27 30 -44 68 -31 26 9
29 8 35 -13 4 -16 15 -26 35 -30 17 -3 29 -12 29 -21 0 -8 9 -15 19 -15 29 0
36 -18 15 -41 -17 -18 -16 -19 10 -19 32 0 52 17 59 51 4 23 4 22 6 -3 0 -16
5 -28 10 -28 5 0 7 -9 4 -21 -5 -17 -2 -20 23 -17 24 2 30 -1 32 -19 2 -15 10
-23 23 -23 14 0 19 6 17 20 -2 10 6 26 17 34 19 13 19 15 2 33 -9 11 -17 29
-17 39 0 21 -55 54 -90 54 -22 0 -51 37 -43 56 3 8 0 14 -7 14 -7 0 -10 7 -6
15 3 8 1 15 -3 15 -5 0 -19 11 -32 25 -13 13 -30 25 -37 25 -8 0 -10 5 -6 13
6 10 4 10 -7 0 -16 -15 -79 -17 -79 -3 0 6 9 10 19 10 30 0 37 21 13 41 -12 9
-21 23 -19 31 2 7 2 10 0 6 -7 -11 -35 -9 -53 3 -12 8 -10 9 8 4 30 -9 39 17
18 50 -21 31 -20 43 2 48 9 2 7 3 -5 2 -13 -1 -23 1 -23 5 0 3 -18 26 -41 51
-47 52 -65 87 -49 103 15 15 12 36 -5 30 -8 -4 -15 -2 -15 4 0 6 6 13 13 15 6
3 -3 6 -20 6 -33 1 -45 -15 -19 -25 20 -8 29 -34 11 -34 -8 0 -15 5 -15 10 0
6 -9 19 -20 30 -19 19 -33 20 -350 20 l-330 0 0 -578z m490 472 c0 -16 -16
-19 -25 -4 -8 13 4 32 16 25 5 -4 9 -13 9 -21z m-115 -84 c3 -5 2 -10 -4 -10
-5 0 -13 5 -16 10 -3 6 -2 10 4 10 5 0 13 -4 16 -10z m-35 -40 c0 -5 -5 -10
-11 -10 -5 0 -7 5 -4 10 3 6 8 10 11 10 2 0 4 -4 4 -10z m420 -160 c0 -5 -5
-10 -11 -10 -5 0 -7 5 -4 10 3 6 8 10 11 10 2 0 4 -4 4 -10z m95 -10 c3 -5 -1
-10 -9 -10 -9 0 -16 5 -16 10 0 6 4 10 9 10 6 0 13 -4 16 -10z m15 -100 c0 -5
-9 -10 -19 -10 -11 0 -23 5 -26 10 -4 6 5 10 19 10 14 0 26 -4 26 -10z m-820
-70 c0 -5 -4 -10 -9 -10 -6 0 -13 5 -16 10 -3 6 1 10 9 10 9 0 16 -4 16 -10z
m178 -2 c-6 -18 -28 -21 -28 -4 0 9 7 16 16 16 9 0 14 -5 12 -12z m106 -14 c8
-22 8 -24 -8 -24 -18 0 -29 16 -21 30 9 15 22 12 29 -6z m-14 -48 c16 -21 40
-129 31 -139 -10 -10 -41 47 -41 74 0 10 -9 23 -20 29 -26 14 -27 50 -1 50 10
0 24 -7 31 -14z m847 -32 c-10 -10 -57 -14 -57 -5 0 5 10 11 23 13 23 4 42 -1
34 -8z m-587 -14 c0 -5 -5 -10 -11 -10 -5 0 -7 5 -4 10 3 6 8 10 11 10 2 0 4
-4 4 -10z m-430 -31 c0 -5 -4 -9 -10 -9 -5 0 -10 7 -10 16 0 8 5 12 10 9 6 -3
10 -10 10 -16z m590 1 c0 -12 -27 -12 -55 0 -16 7 -13 9 18 9 20 1 37 -3 37
-9z m-610 -39 c-1 -15 -2 -15 -13 0 -7 9 -16 16 -22 17 -5 0 -11 5 -13 11 -3
8 4 8 22 0 14 -7 26 -19 26 -28z m600 -15 c0 -2 -11 -6 -25 -8 -14 -3 -25 -1
-25 3 0 5 11 9 25 9 14 0 25 -2 25 -4z m154 -24 c2 -4 0 -14 -5 -22 -8 -13
-10 -13 -19 0 -5 8 -10 18 -10 23 0 10 28 9 34 -1z m-826 -50 c3 -9 -2 -13
-14 -10 -9 1 -19 9 -22 16 -3 9 2 13 14 10 9 -1 19 -9 22 -16z m72 8 c0 -5 -4
-10 -10 -10 -5 0 -10 5 -10 10 0 6 5 10 10 10 6 0 10 -4 10 -10z m37 -46 c-3
-3 -12 -4 -19 -1 -8 3 -5 6 6 6 11 1 17 -2 13 -5z m-114 -69 c1 -5 -6 -11 -15
-13 -11 -2 -18 3 -18 13 0 17 30 18 33 0z m487 -131 c0 -11 -5 -14 -16 -10 -9
3 -18 6 -20 6 -3 0 -2 5 1 10 10 16 35 12 35 -6z"/>
<path d="M1223 4646 c3 -8 3 -17 -1 -19 -4 -2 -1 -2 7 0 8 2 44 -28 81 -67 36
-38 71 -70 78 -70 7 0 12 -3 12 -7 0 -5 22 -32 48 -60 33 -36 56 -53 72 -53
19 0 21 -3 12 -12 -15 -15 12 -48 42 -49 18 0 19 -1 3 -7 -16 -7 -15 -10 8
-44 14 -20 25 -41 25 -45 1 -15 89 -103 104 -103 16 0 31 -34 21 -50 -8 -12
23 -65 32 -56 4 3 12 -3 20 -14 20 -28 47 -27 40 2 -4 12 1 34 10 49 20 34 13
43 -30 44 -31 0 -32 1 -29 38 3 41 4 41 -33 27 -17 -7 -32 -7 -43 0 -12 6 -13
9 -4 10 8 0 27 10 44 21 21 15 26 25 19 32 -6 6 -11 22 -11 35 0 16 -7 26 -21
29 -12 3 -18 11 -15 19 7 19 -14 64 -31 64 -9 0 -12 10 -9 33 3 19 -2 46 -10
62 -8 15 -14 34 -14 41 0 8 -3 14 -7 14 -11 0 -33 50 -33 71 0 10 -5 21 -11
24 -5 4 -14 18 -19 31 l-10 24 -176 0 c-149 0 -175 -2 -171 -14z m364 -262
c-3 -3 -12 -4 -19 -1 -8 3 -5 6 6 6 11 1 17 -2 13 -5z m48 -10 c13 -5 14 -8 3
-15 -19 -12 -25 -11 -32 6 -6 16 3 19 29 9z m55 -134 c0 -5 -9 -9 -20 -7 -31
5 -36 17 -7 17 15 0 27 -4 27 -10z m128 -208 c2 -7 -7 -12 -23 -12 -24 0 -26
2 -15 15 14 17 31 16 38 -3z"/>
<path d="M1657 4653 c-10 -10 -8 -91 2 -97 10 -7 21 17 21 45 0 10 7 19 15 19
8 0 15 9 15 20 0 14 -7 20 -23 20 -13 0 -27 -3 -30 -7z"/>
<path d="M1740 4643 c1 -10 7 -36 15 -57 12 -33 12 -42 -1 -61 -16 -25 -9 -55
12 -55 7 0 16 11 20 25 7 28 19 32 28 10 9 -25 36 -18 29 8 -3 12 -6 38 -8 57
-1 19 -7 47 -13 63 -10 22 -18 27 -47 27 -27 0 -35 -4 -35 -17z"/>
<path d="M1846 4643 c4 -10 7 -36 6 -58 -1 -39 14 -85 29 -85 4 0 5 18 2 40
-4 31 -2 40 9 40 9 0 21 -13 28 -29 13 -33 31 -44 78 -49 6 -1 12 -9 12 -17 0
-8 4 -15 9 -15 19 0 23 21 8 43 -8 13 -23 51 -32 85 l-18 62 -69 0 c-63 0 -69
-2 -62 -17z"/>
<path d="M2100 4639 c0 -30 22 -99 31 -99 4 0 16 11 27 25 11 14 30 25 42 25
18 0 21 4 17 22 -4 12 -1 28 5 35 8 10 -3 13 -56 13 -61 0 -66 -2 -66 -21z"/>
<path d="M2241 4633 c0 -16 3 -22 6 -15 2 6 11 12 19 12 8 0 14 7 14 15 0 8
-9 15 -20 15 -15 0 -20 -6 -19 -27z"/>
<path d="M2470 4611 c0 -59 11 -70 40 -39 l21 22 -3 -24 c-2 -20 1 -25 20 -24
15 0 22 -5 22 -18 0 -13 4 -17 13 -11 6 4 21 6 31 4 13 -2 17 2 13 12 -3 8 3
21 14 30 10 9 19 26 19 38 0 11 5 29 10 40 10 18 6 19 -95 19 l-105 0 0 -49z
m70 24 c0 -8 -4 -15 -10 -15 -5 0 -7 7 -4 15 4 8 8 15 10 15 2 0 4 -7 4 -15z
m67 -91 c-3 -3 -12 -4 -19 -1 -8 3 -5 6 6 6 11 1 17 -2 13 -5z"/>
<path d="M2836 4643 c-3 -10 -13 -38 -21 -63 -9 -25 -27 -79 -40 -120 -12 -41
-32 -98 -43 -126 -25 -67 -24 -119 3 -119 11 0 26 -4 34 -9 22 -14 50 24 53
71 2 25 8 43 15 43 7 0 20 16 29 36 22 46 7 87 -30 80 -29 -5 -42 17 -20 34 8
7 14 20 14 30 0 25 27 33 33 9 6 -22 27 -26 27 -4 0 8 5 15 10 15 19 0 32 52
20 78 -5 13 -7 29 -3 35 10 16 21 -26 22 -81 1 -43 2 -43 34 -40 30 3 32 5 33
43 2 80 3 87 18 82 8 -3 17 1 20 9 4 12 -12 14 -98 14 -90 0 -104 -2 -110 -17z"/>
<path d="M3256 4645 c4 -8 -1 -17 -10 -21 -14 -5 -14 -8 -1 -27 19 -27 19 -37
0 -37 -8 0 -15 4 -15 9 0 17 -31 21 -37 5 -6 -15 39 -64 59 -64 4 0 7 -6 6
-12 -2 -7 6 -13 16 -13 29 0 30 -19 1 -53 -14 -16 -25 -37 -25 -47 0 -9 -7
-23 -15 -31 -8 -9 -15 -20 -15 -25 0 -20 19 -7 44 31 14 22 31 40 36 40 6 0
10 7 10 15 0 8 51 67 113 130 l113 115 -142 0 c-123 0 -143 -2 -138 -15z"/>
<path d="M3662 4630 c-12 -16 -22 -35 -22 -43 0 -8 -10 -25 -22 -39 -85 -93
-144 -164 -150 -179 -4 -11 -12 -19 -18 -19 -5 0 -10 -9 -10 -19 0 -11 -4 -23
-10 -26 -5 -3 -18 -26 -29 -50 -14 -33 -24 -43 -35 -39 -9 4 -18 0 -22 -10
-12 -31 -24 -15 -18 24 4 22 4 40 1 40 -9 0 -67 -61 -67 -70 0 -4 -16 -25 -35
-46 -42 -45 -44 -58 -9 -50 17 5 23 3 19 -4 -3 -6 3 -10 14 -10 14 0 21 -6 21
-19 0 -29 28 -48 48 -33 10 7 25 15 35 18 9 4 17 13 17 20 0 19 -17 18 -28 -2
-8 -14 -10 -14 -21 0 -7 9 -11 23 -7 31 4 12 19 14 73 11 37 -2 69 -4 71 -5 2
-1 -13 -21 -34 -46 -21 -27 -31 -45 -23 -45 21 1 52 30 82 78 15 23 38 47 51
52 25 9 49 61 40 85 -7 17 11 21 21 5 10 -17 29 -11 61 18 24 22 33 25 42 15
10 -10 29 0 95 49 45 34 86 68 90 75 4 7 14 13 22 13 7 0 22 12 33 27 11 16
24 23 31 19 9 -6 9 -11 -1 -24 -11 -14 -10 -15 5 -9 10 4 23 7 29 7 6 0 8 10
5 21 -4 16 -3 19 5 11 17 -17 0 -61 -27 -74 -14 -6 -25 -14 -25 -18 0 -9 -136
-120 -147 -120 -4 0 -26 -16 -48 -35 -33 -29 -37 -36 -25 -45 13 -8 11 -11 -8
-16 -15 -5 -21 -12 -17 -23 3 -11 -5 -27 -20 -41 -13 -12 -22 -27 -19 -32 3
-5 0 -8 -7 -7 -17 3 -69 -21 -69 -32 0 -4 -14 -10 -31 -14 -31 -7 -32 -20 -1
-20 25 0 27 -32 3 -40 -12 -3 -21 -10 -21 -14 0 -5 -13 -11 -30 -14 -32 -7
-40 -33 -18 -55 9 -9 7 -12 -10 -12 -24 0 -29 -19 -10 -38 10 -10 10 -15 -2
-22 -27 -17 -5 -19 45 -6 28 8 111 32 185 55 150 45 168 48 210 26 16 -8 31
-11 35 -6 7 13 132 54 148 48 12 -4 -40 -30 -105 -50 -39 -12 -46 -21 -28 -32
6 -4 8 -11 5 -16 -4 -5 -1 -9 4 -9 6 0 11 -5 11 -11 0 -7 8 -18 18 -26 9 -8
11 -11 3 -7 -9 4 -12 2 -9 -7 3 -8 10 -13 16 -12 11 3 38 -63 74 -176 12 -40
27 -75 33 -77 6 -3 40 2 75 9 l65 13 3 577 2 576 -293 1 -293 0 -22 -30z m488
-80 c0 -5 -2 -10 -4 -10 -3 0 -8 5 -11 10 -3 6 -1 10 4 10 6 0 11 -4 11 -10z
m-35 -10 c3 -5 2 -10 -4 -10 -5 0 -13 5 -16 10 -3 6 -2 10 4 10 5 0 13 -4 16
-10z m-15 -29 c0 -6 -4 -13 -10 -16 -5 -3 -10 1 -10 9 0 9 5 16 10 16 6 0 10
-4 10 -9z m-30 -26 c10 -12 10 -15 -4 -15 -9 0 -16 7 -16 15 0 8 2 15 4 15 2
0 9 -7 16 -15z m-275 -305 c-3 -5 -11 -10 -16 -10 -6 0 -7 5 -4 10 3 6 11 10
16 10 6 0 7 -4 4 -10z m350 -260 c-3 -5 -11 -10 -16 -10 -6 0 -7 5 -4 10 3 6
11 10 16 10 6 0 7 -4 4 -10z m-540 -29 c-8 -13 -35 -15 -35 -2 0 5 8 11 18 13
21 5 26 2 17 -11z m25 -41 c0 -5 -7 -10 -15 -10 -8 0 -15 5 -15 10 0 6 7 10
15 10 8 0 15 -4 15 -10z m-60 -20 c0 -5 -9 -10 -20 -10 -11 0 -20 5 -20 10 0
6 9 10 20 10 11 0 20 -4 20 -10z"/>
<path d="M1170 4598 c0 -18 12 -33 33 -41 23 -9 22 15 -1 36 -22 20 -32 21
-32 5z"/>
<path d="M2735 4533 c-15 -38 -32 -74 -38 -81 -6 -8 -12 -31 -13 -52 -1 -21
-5 -47 -9 -59 -3 -12 -2 -21 3 -21 5 0 17 24 26 53 10 28 30 80 47 114 28 60
38 113 20 113 -5 0 -21 -30 -36 -67z"/>
<path d="M2325 4520 c-3 -5 -1 -10 4 -10 6 0 11 5 11 10 0 6 -2 10 -4 10 -3 0
-8 -4 -11 -10z"/>
<path d="M3071 4484 c-17 -25 -31 -52 -31 -60 0 -27 30 -13 49 24 15 27 35 29
26 2 -10 -31 3 -42 28 -25 27 19 37 19 37 1 0 -8 5 -27 10 -42 l11 -28 19 32
c11 18 24 32 30 32 5 0 10 10 10 23 0 27 -52 50 -103 45 -28 -3 -32 0 -29 20
5 37 -24 26 -57 -24z"/>
<path d="M3440 4484 c0 -8 5 -12 10 -9 6 3 10 10 10 16 0 5 -4 9 -10 9 -5 0
-10 -7 -10 -16z"/>
<path d="M2198 4472 c-59 -3 -74 -17 -44 -41 10 -9 20 -9 41 1 24 11 29 10 45
-10 10 -12 21 -22 24 -22 9 0 7 68 -1 72 -5 2 -34 2 -65 0z"/>
<path d="M1370 4456 c0 -2 7 -6 15 -10 8 -3 15 -1 15 4 0 6 -7 10 -15 10 -8 0
-15 -2 -15 -4z"/>
<path d="M2582 4442 c4 -21 38 -29 38 -9 0 8 -9 17 -21 20 -15 4 -19 1 -17
-11z"/>
<path d="M1872 4422 c-23 -28 -29 -52 -12 -52 6 0 10 -13 10 -29 0 -16 8 -39
18 -52 l19 -22 7 28 c4 16 3 32 -3 38 -19 19 -12 47 14 59 25 11 31 25 17 43
-14 20 -49 14 -70 -13z"/>
<path d="M1966 4441 c-3 -5 1 -14 9 -21 8 -7 15 -21 15 -31 0 -10 5 -21 10
-24 6 -3 10 -15 10 -26 0 -11 7 -19 16 -19 12 0 15 6 10 25 -3 14 -9 37 -12
53 -11 45 -42 69 -58 43z"/>
<path d="M2540 4420 c0 -5 7 -7 15 -4 8 4 15 8 15 10 0 2 -7 4 -15 4 -8 0 -15
-4 -15 -10z"/>
<path d="M2562 4394 c-8 -9 -12 -23 -10 -32 3 -10 -1 -23 -9 -30 -17 -17 -17
-29 3 -36 22 -9 25 -5 35 50 10 52 2 71 -19 48z"/>
<path d="M1410 4383 c0 -9 37 -53 45 -53 2 0 0 12 -4 28 -7 25 -41 46 -41 25z"/>
<path d="M880 4360 c0 -5 5 -10 11 -10 5 0 7 5 4 10 -3 6 -8 10 -11 10 -2 0
-4 -4 -4 -10z"/>
<path d="M3137 4316 c-26 -23 -47 -45 -47 -48 0 -13 32 -38 48 -38 9 0 30 16
45 36 27 33 28 37 15 64 l-14 29 -47 -43z"/>
<path d="M1935 4320 c-3 -5 1 -10 10 -10 9 0 13 5 10 10 -3 6 -8 10 -10 10 -2
0 -7 -4 -10 -10z"/>
<path d="M2184 4315 c-8 -20 4 -35 27 -35 21 0 25 20 7 38 -16 16 -27 15 -34
-3z"/>
<path d="M1490 4305 c0 -8 5 -15 10 -15 6 0 10 -7 10 -15 0 -8 4 -15 8 -15 5
0 17 -17 28 -37 10 -20 26 -44 34 -53 34 -37 60 -75 60 -87 0 -7 7 -13 15 -13
20 0 19 12 -5 37 -10 12 -22 32 -25 45 -3 13 -19 38 -35 56 -16 19 -32 42 -35
53 -4 10 -11 19 -16 19 -5 0 -18 9 -29 20 -16 16 -20 17 -20 5z"/>
<path d="M3070 4300 c0 -5 5 -10 10 -10 6 0 10 5 10 10 0 6 -4 10 -10 10 -5 0
-10 -4 -10 -10z"/>
<path d="M1954 4289 c-5 -9 -2 -10 11 -6 9 4 24 2 33 -5 13 -11 14 -10 10 2
-6 19 -44 25 -54 9z"/>
<path d="M2030 4278 c1 -7 7 -26 14 -43 l13 -30 8 28 c5 17 3 33 -5 42 -15 18
-30 19 -30 3z"/>
<path d="M1436 4271 c-7 -11 14 -61 26 -61 4 0 8 11 8 24 0 26 -24 53 -34 37z"/>
<path d="M1901 4257 c2 -1 12 -9 22 -16 14 -12 17 -11 17 3 0 10 -8 16 -22 16
-12 0 -19 -1 -17 -3z"/>
<path d="M2241 4244 c0 -11 3 -14 6 -6 3 7 2 16 -1 19 -3 4 -6 -2 -5 -13z"/>
<path d="M1992 4228 c-6 -6 -12 -25 -12 -40 0 -22 -5 -28 -21 -28 -16 0 -20
-5 -17 -25 4 -33 20 -36 33 -7 11 26 21 28 29 7 3 -8 2 -15 -2 -15 -10 0 -14
-48 -4 -54 34 -21 45 63 19 139 -10 28 -15 33 -25 23z"/>
<path d="M2486 4231 c-10 -15 4 -61 18 -61 15 0 15 62 -1 67 -6 2 -14 0 -17
-6z"/>
<path d="M1931 4204 c0 -11 3 -14 6 -6 3 7 2 16 -1 19 -3 4 -6 -2 -5 -13z"/>
<path d="M3040 4179 c0 -8 10 -20 21 -27 18 -12 24 -11 37 2 20 20 8 33 -14
15 -14 -11 -18 -11 -30 6 -10 14 -14 15 -14 4z"/>
<path d="M2197 4143 c-11 -10 -8 -51 3 -58 6 -4 10 8 10 29 0 37 -2 41 -13 29z"/>
<path d="M2683 4124 c-10 -7 -19 -17 -19 -23 -1 -6 -2 -15 -3 -21 0 -5 -22
-16 -48 -23 -44 -13 -48 -17 -55 -53 -3 -21 -16 -93 -27 -159 -28 -158 -39
-195 -56 -195 -8 0 -15 4 -15 9 0 15 -121 152 -225 254 -66 65 -72 68 -105 62
-19 -4 -62 -21 -95 -38 -70 -38 -68 -30 -56 -222 5 -71 6 -133 4 -138 -6 -9
-30 5 -73 43 -19 17 -63 51 -98 75 -60 43 -66 45 -130 45 l-67 -1 -38 -82
c-42 -92 -44 -113 -19 -178 23 -62 58 -111 98 -137 36 -23 42 -40 22 -60 -8
-8 -9 -12 -1 -12 6 0 13 5 15 12 3 7 10 8 17 4 10 -7 10 -10 1 -16 -7 -5 -2
-7 14 -7 15 0 36 -9 47 -19 12 -11 23 -18 25 -17 8 5 101 -64 149 -110 28 -27
55 -52 60 -55 6 -4 19 -39 29 -78 l18 -71 -77 -82 c-61 -63 -87 -83 -119 -92
-22 -5 -67 -19 -98 -29 -32 -11 -72 -22 -90 -24 -31 -4 -130 -37 -173 -57 -11
-5 -36 -11 -55 -12 -19 -1 -37 -4 -40 -7 -23 -23 -52 -30 -76 -17 -29 15 -59
83 -42 93 6 4 4 11 -6 16 -9 5 -14 14 -10 20 4 6 10 5 15 -3 5 -8 9 -9 9 -4
-1 18 -28 47 -39 40 -7 -3 -8 0 -5 9 3 9 11 16 18 16 6 0 3 6 -6 14 -13 10
-15 15 -6 24 9 9 9 15 -1 25 -11 10 -12 9 -6 -3 5 -9 4 -12 -1 -7 -5 5 -9 16
-9 25 0 9 -6 16 -14 14 -8 -2 -11 3 -8 12 3 8 -2 20 -11 27 -14 11 -15 11 -5
-1 8 -9 9 -19 3 -31 -7 -12 -6 -22 4 -32 13 -13 12 -14 -10 -14 -13 0 -27 3
-30 8 -10 17 -22 9 -17 -11 3 -11 8 -18 12 -16 3 2 6 -10 6 -27 0 -32 22 -45
37 -22 4 5 6 0 6 -12 -1 -12 -7 -19 -15 -16 -7 3 -13 -2 -13 -12 0 -9 4 -14 9
-10 5 3 12 1 16 -5 3 -5 1 -10 -4 -10 -6 0 -11 -7 -11 -15 0 -10 6 -12 18 -8
14 6 15 4 4 -9 -13 -16 -4 -52 34 -131 21 -44 54 -51 54 -11 0 24 3 22 49 -25
27 -28 55 -51 61 -51 6 0 27 7 48 16 88 38 407 144 420 139 11 -4 11 -9 -1
-32 -35 -67 -50 -174 -49 -343 0 -73 4 -97 16 -105 11 -9 14 -22 9 -49 -6 -35
-4 -38 18 -34 l24 3 3 -140 c3 -137 -20 -435 -38 -505 -20 -79 -60 -375 -71
-530 -33 -484 -35 -501 -48 -510 -22 -13 -81 -19 -266 -30 -93 -5 -180 -12
-193 -14 -48 -10 -169 -6 -223 7 -30 8 -95 18 -145 21 -119 10 -267 42 -329
73 -54 26 -163 55 -177 47 -4 -3 -8 -108 -8 -235 l0 -229 1935 0 1935 0 0 226
0 227 -122 -6 c-169 -8 -460 -66 -512 -103 -25 -17 -121 -18 -446 -4 -416 18
-548 29 -580 45 -67 35 -100 117 -100 253 0 71 -12 223 -26 322 -13 97 -16
794 -4 945 7 88 14 171 14 185 2 44 47 120 100 170 65 63 324 257 445 335 218
140 212 131 222 383 4 101 9 185 11 187 4 5 258 102 353 135 44 16 127 46 185
68 58 22 137 48 175 58 39 10 74 21 78 25 5 4 4 24 -2 45 -6 21 -7 41 -3 44 4
3 9 15 9 28 2 23 -22 31 -30 10 -3 -8 -6 -6 -6 5 -1 9 6 17 14 17 8 0 15 7 15
16 0 11 -5 14 -17 10 -9 -4 -20 -1 -25 6 -5 8 -8 2 -8 -18 0 -20 -6 -34 -16
-38 -9 -4 -17 -5 -18 -4 -12 30 -56 166 -56 172 0 4 6 6 14 3 8 -3 17 1 20 10
6 14 8 14 21 -3 14 -17 14 -16 3 11 -6 17 -18 37 -25 45 -11 12 -13 12 -13 -4
0 -14 -5 -17 -24 -12 -14 3 -28 1 -31 -5 -4 -6 -21 -19 -39 -30 -28 -17 -29
-19 -8 -19 12 0 22 -4 22 -10 0 -5 6 -7 14 -4 7 3 12 16 10 30 -1 13 1 22 6
19 5 -3 11 1 14 7 4 7 4 3 2 -10 -3 -13 2 -39 10 -58 18 -43 43 -161 36 -169
-3 -3 -14 -5 -25 -5 -26 0 -18 -8 14 -14 13 -2 29 1 36 6 7 5 20 8 30 6 22 -5
-21 -25 -160 -74 -111 -38 -111 -38 -101 -23 4 7 1 10 -7 7 -8 -3 -14 -10 -14
-17 0 -7 -34 -25 -75 -40 -140 -52 -386 -131 -406 -131 -14 0 -27 14 -42 43
-28 54 -46 77 -61 77 -6 0 -41 -45 -77 -100 -45 -68 -72 -100 -85 -100 -13 0
-28 19 -51 68 -30 64 -32 73 -34 202 -2 146 -6 199 -18 218 -4 7 -4 17 0 23 4
7 19 -2 40 -22 37 -36 42 -49 19 -49 -18 0 -19 -7 -2 -25 6 -8 18 -21 25 -30
17 -20 36 -19 28 3 -4 11 2 8 15 -8 47 -57 83 -92 110 -106 28 -14 31 -13 54
10 20 20 25 35 25 77 0 29 -4 66 -10 83 -5 17 -21 77 -35 134 -13 57 -27 107
-30 113 -11 17 -62 9 -175 -26 -62 -19 -115 -33 -120 -30 -4 2 -10 24 -13 47
-12 97 -40 244 -49 254 -14 18 -56 23 -75 8z m-507 -436 c27 -40 69 -101 95
-136 30 -40 46 -69 42 -79 -5 -12 -3 -14 7 -8 10 6 12 1 7 -26 -5 -21 -4 -29
2 -20 7 11 11 9 21 -10 17 -33 101 -159 124 -186 10 -12 22 -20 26 -18 4 3 11
65 15 140 4 83 11 133 17 129 5 -3 4 3 -3 13 -10 17 -8 25 9 49 12 16 26 56
31 89 20 121 24 135 33 135 4 0 13 -12 19 -27 6 -16 20 -45 30 -66 11 -22 19
-44 19 -51 0 -6 9 -19 20 -29 11 -9 20 -25 20 -34 0 -17 61 -220 97 -323 28
-83 26 -89 -46 -116 -81 -31 -91 -30 -92 4 -1 24 -2 23 -8 -8 l-6 -35 -150 0
c-151 0 -173 -4 -277 -49 -13 -6 -19 1 -29 32 -8 27 -16 39 -25 35 -8 -3 -22
1 -32 8 -14 11 -15 11 -4 -1 20 -23 13 -90 -11 -90 -6 0 -21 10 -34 22 -13 12
-23 17 -23 11 0 -6 7 -16 15 -23 13 -11 13 -15 3 -22 -19 -14 41 0 76 18 34
16 39 17 34 5 -3 -10 -121 -91 -125 -87 -2 1 -4 16 -6 32 -2 16 -9 39 -15 51
-7 12 -12 29 -12 37 0 9 -5 15 -12 14 -7 -2 -15 18 -20 50 -4 29 -13 62 -19
73 -5 11 -7 30 -4 42 5 17 4 19 -4 7 -9 -13 -11 -13 -11 3 0 9 -5 17 -11 17
-5 0 -7 5 -4 10 5 8 12 7 23 -2 14 -10 15 -10 5 2 -16 17 -17 56 -2 66 6 3 25
-8 42 -25 18 -17 26 -31 20 -31 -7 0 -19 10 -27 22 -13 18 -16 19 -16 6 0 -9
5 -20 10 -23 6 -4 8 -11 4 -16 -3 -6 5 -7 21 -3 24 6 36 -2 106 -72 90 -90 91
-89 54 60 -13 54 -22 104 -18 110 3 6 2 8 -2 3 -13 -12 -35 65 -29 100 3 18
-3 68 -15 116 -22 89 -28 177 -12 177 5 0 31 -33 57 -72z m-356 -223 c108 -53
160 -89 160 -111 0 -23 -19 -16 -25 9 -4 13 -13 24 -20 24 -15 0 -13 -23 7
-76 5 -13 6 -26 4 -29 -3 -3 -8 1 -10 9 -31 97 -30 96 -34 66 l-3 -28 -35 31
c-19 16 -61 43 -93 60 -32 16 -61 37 -65 47 -3 10 -13 29 -21 42 -19 34 -8 47
19 22 11 -11 64 -41 116 -66z m1183 -407 c2 -7 1 -22 -3 -33 -4 -11 -13 -54
-19 -95 -17 -107 -15 -103 -58 -80 -21 11 -41 20 -44 20 -18 0 -114 74 -114
88 0 10 30 31 80 55 44 22 87 43 95 48 23 12 58 10 63 -3z m-1765 -388 l0 -35
-8 30 c-4 17 -8 41 -8 55 -1 23 0 23 8 5 5 -11 8 -36 8 -55z m842 -2040 c0 -5
-7 -10 -15 -10 -8 0 -15 5 -15 10 0 6 7 10 15 10 8 0 15 -4 15 -10z"/>
<path d="M2600 3630 c0 -5 5 -10 11 -10 5 0 7 5 4 10 -3 6 -8 10 -11 10 -2 0
-4 -4 -4 -10z"/>
<path d="M2213 3465 c0 -8 4 -15 9 -15 4 0 8 4 8 9 0 6 -4 12 -8 15 -5 3 -9
-1 -9 -9z"/>
<path d="M2252 3440 c0 -19 2 -27 5 -17 2 9 2 25 0 35 -3 9 -5 1 -5 -18z"/>
<path d="M2192 3430 c0 -19 2 -27 5 -17 2 9 2 25 0 35 -3 9 -5 1 -5 -18z"/>
<path d="M2366 3174 c-5 -14 -4 -15 9 -4 17 14 19 20 6 20 -5 0 -12 -7 -15
-16z"/>
<path d="M2270 3139 c0 -5 5 -7 10 -4 6 3 10 8 10 11 0 2 -4 4 -10 4 -5 0 -10
-5 -10 -11z"/>
<path d="M2296 3124 c-11 -7 -24 -15 -30 -17 -6 -2 -8 -8 -4 -12 5 -5 17 0 28
10 18 17 21 17 45 1 14 -9 25 -12 25 -7 0 5 -10 15 -23 24 -19 12 -26 13 -41
1z"/>
<path d="M2106 3055 c4 -8 10 -12 15 -9 14 8 10 24 -6 24 -9 0 -12 -6 -9 -15z"/>
<path d="M2955 3009 c-4 -6 -5 -12 -2 -15 2 -3 7 2 10 11 7 17 1 20 -8 4z"/>
<path d="M3602 4108 c7 -19 38 -22 38 -4 0 10 -9 16 -21 16 -12 0 -19 -5 -17
-12z"/>
<path d="M3157 4079 c-3 -13 -1 -19 6 -16 15 5 22 37 9 37 -5 0 -12 -9 -15
-21z"/>
<path d="M1155 4070 c-3 -6 1 -7 9 -4 18 7 21 14 7 14 -6 0 -13 -4 -16 -10z"/>
<path d="M3127 4031 c-4 -19 -5 -36 -2 -39 3 -3 5 2 5 11 0 10 8 17 18 17 10
0 13 3 6 8 -6 4 -13 14 -16 22 -2 8 -8 0 -11 -19z"/>
<path d="M3210 4040 c-9 -17 -8 -20 10 -20 13 0 20 7 20 20 0 11 -4 20 -10 20
-5 0 -14 -9 -20 -20z"/>
<path d="M1333 4025 c-8 -21 3 -30 20 -17 8 7 18 8 23 4 4 -4 2 1 -5 11 -17
21 -30 22 -38 2z"/>
<path d="M3170 3995 c0 -9 5 -15 11 -13 6 2 11 8 11 13 0 5 -5 11 -11 13 -6 2
-11 -4 -11 -13z"/>
<path d="M825 3758 c0 -24 7 -34 34 -49 25 -13 39 -15 53 -8 10 5 18 13 18 17
0 15 -55 59 -80 65 -23 6 -26 3 -25 -25z"/>
<path d="M1391 3743 c4 -22 -2 -35 -15 -30 -20 8 -41 -18 -24 -29 16 -10 61
-5 69 8 12 19 4 53 -14 56 -10 2 -17 0 -16 -5z"/>
<path d="M1512 3739 c3 -8 13 -13 22 -13 19 2 21 -7 4 -26 -11 -12 -10 -12 5
-1 18 14 23 41 8 41 -5 0 -17 3 -27 7 -12 4 -15 2 -12 -8z"/>
<path d="M3990 3705 c0 -6 9 -11 20 -11 11 0 20 6 20 13 0 6 -9 11 -20 10 -11
-1 -20 -6 -20 -12z"/>
<path d="M4000 3665 c0 -7 9 -15 20 -18 22 -6 33 3 22 18 -10 15 -42 15 -42 0z"/>
<path d="M1521 3654 c0 -11 3 -14 6 -6 3 7 2 16 -1 19 -3 4 -6 -2 -5 -13z"/>
<path d="M3854 3629 c3 -17 6 -38 6 -47 0 -32 11 -2 14 37 2 31 0 41 -12 41
-11 0 -13 -7 -8 -31z"/>
<path d="M1325 3629 c-10 -15 1 -23 20 -15 9 3 13 10 10 16 -8 13 -22 13 -30
-1z"/>
<path d="M1210 3619 c0 -5 5 -7 10 -4 6 3 10 8 10 11 0 2 -4 4 -10 4 -5 0 -10
-5 -10 -11z"/>
<path d="M3844 3535 c-10 -14 -27 -28 -37 -31 -10 -3 -16 -8 -14 -11 9 -8 64
26 71 43 10 27 1 26 -20 -1z"/>
<path d="M1230 3496 c0 -15 -6 -29 -13 -32 -7 -2 -13 -20 -14 -39 -1 -28 3
-36 21 -41 12 -3 34 -1 48 5 28 10 52 43 41 55 -13 12 -51 6 -57 -10 -4 -9 -9
-15 -12 -12 -2 3 1 18 8 32 8 19 17 26 30 22 12 -3 17 0 15 7 -3 7 -10 11 -17
9 -7 -2 -21 5 -31 14 -18 16 -19 16 -19 -10z"/>
<path d="M3607 3479 c4 -13 8 -18 11 -10 2 7 -1 18 -6 23 -8 8 -9 4 -5 -13z"/>
<path d="M1341 3477 c-8 -11 -5 -14 18 -14 24 0 27 3 16 14 -8 7 -16 13 -18
13 -3 0 -10 -6 -16 -13z"/>
<path d="M3690 3450 c-9 -6 -10 -10 -3 -10 6 0 15 5 18 10 8 12 4 12 -15 0z"/>
<path d="M400 3280 l0 -167 33 2 c17 2 37 -2 44 -7 21 -17 203 -2 266 22 47
18 63 20 89 11 39 -14 150 -15 128 -1 -22 14 -9 19 48 21 42 2 52 6 52 19 0
25 19 37 75 50 73 17 129 33 140 39 12 7 18 8 50 10 14 0 25 6 25 12 0 12 -68
7 -90 -6 -20 -12 -87 -18 -75 -6 6 5 23 11 38 13 39 4 34 22 -8 26 -25 2 -37
-1 -41 -13 -5 -12 -15 -14 -43 -9 -20 4 -40 10 -45 15 -15 14 -42 11 -56 -6
-7 -8 -21 -15 -31 -15 -17 0 -17 3 -7 20 7 10 10 21 8 24 -5 3 -166 34 -230
42 -47 7 -172 34 -181 40 -12 7 -46 13 -126 23 l-63 7 0 -166z m487 -136 c-3
-3 -12 -4 -19 -1 -8 3 -5 6 6 6 11 1 17 -2 13 -5z m50 0 c-3 -3 -12 -4 -19 -1
-8 3 -5 6 6 6 11 1 17 -2 13 -5z"/>
<path d="M4170 3426 c-83 -22 -85 -23 -88 -55 -2 -17 -9 -34 -15 -35 -115 -32
-263 -90 -289 -112 -16 -15 -19 -14 -42 11 l-26 28 -46 -18 c-30 -11 -42 -21
-36 -27 6 -6 17 -6 30 1 11 6 25 11 31 11 19 0 12 -15 -11 -25 -32 -15 -37
-38 -5 -26 31 12 98 3 112 -14 10 -11 218 -36 413 -49 l72 -5 0 170 c0 93 -3
169 -7 168 -5 0 -46 -11 -93 -23z"/>
<path d="M1478 3323 c7 -3 16 -2 19 1 4 3 -2 6 -13 5 -11 0 -14 -3 -6 -6z"/>
<path d="M1398 3303 c7 -3 16 -2 19 1 4 3 -2 6 -13 5 -11 0 -14 -3 -6 -6z"/>
<path d="M1650 3291 c-8 -6 -18 -7 -24 -4 -5 3 -6 1 -2 -6 4 -6 2 -19 -5 -27
-10 -12 -10 -15 2 -12 8 2 13 -3 11 -12 -3 -13 -1 -13 13 1 8 8 18 27 21 42 5
30 5 30 -16 18z"/>
<path d="M1548 3258 c-18 -30 -39 -78 -33 -78 3 0 14 19 26 43 12 23 27 45 33
49 8 6 8 8 0 8 -7 0 -18 -10 -26 -22z"/>
<path d="M1570 3250 c0 -5 4 -10 9 -10 6 0 13 5 16 10 3 6 -1 10 -9 10 -9 0
-16 -4 -16 -10z"/>
<path d="M1496 3233 c-6 -14 -5 -15 5 -6 7 7 10 15 7 18 -3 3 -9 -2 -12 -12z"/>
<path d="M1590 3220 c-8 -5 -10 -10 -5 -10 6 0 17 5 25 10 8 5 11 10 5 10 -5
0 -17 -5 -25 -10z"/>
<path d="M1120 3157 c0 -8 -7 -18 -16 -21 -19 -7 -16 -82 4 -78 6 1 12 -5 12
-14 0 -8 -4 -12 -10 -9 -6 3 -7 -1 -4 -9 3 -9 10 -13 16 -10 5 3 16 -2 23 -12
14 -18 14 -18 15 -1 0 10 4 15 10 12 6 -4 7 1 3 11 -4 10 -8 13 -10 7 -3 -7
-11 -9 -19 -6 -12 4 -11 8 6 20 11 8 25 11 30 8 6 -3 10 -1 10 4 0 6 -6 11
-12 11 -15 0 -38 45 -38 71 0 10 -4 21 -10 24 -5 3 -10 0 -10 -8z"/>
<path d="M400 3089 c0 -5 5 -7 10 -4 6 3 10 8 10 11 0 2 -4 4 -10 4 -5 0 -10
-5 -10 -11z"/>
<path d="M3907 3044 c-3 -3 -3 -21 0 -40 5 -30 3 -33 -12 -28 -13 5 -15 14
-11 35 5 27 3 29 -24 29 -25 0 -30 -4 -30 -24 0 -37 -19 -42 -26 -7 -6 27 -11
31 -38 31 -17 0 -37 -4 -45 -9 -12 -8 -12 -12 3 -26 12 -13 14 -21 7 -28 -15
-15 -14 -37 3 -37 8 0 36 -21 62 -46 56 -52 87 -69 181 -94 37 -10 113 -32
168 -49 55 -17 106 -31 113 -31 9 0 12 40 12 165 l0 165 -178 0 c-98 0 -181
-3 -185 -6z"/>
<path d="M438 3023 l-38 -4 0 -158 0 -158 38 7 c172 33 298 66 314 82 10 10
22 16 27 14 14 -9 60 18 70 42 13 28 31 28 38 1 7 -26 40 -22 130 19 l62 27
-5 40 c-11 86 -9 84 -54 74 -26 -6 -48 -6 -60 1 -26 14 -30 13 -30 -10 0 -26
-27 -26 -35 0 -4 14 -15 20 -38 21 -209 4 -389 5 -419 2z m353 -30 c-8 -15
-10 -15 -11 -2 0 17 10 32 18 25 2 -3 -1 -13 -7 -23z"/>
<path d="M3554 3019 c-3 -5 2 -9 11 -9 8 0 18 -7 21 -15 9 -21 24 -19 24 4 0
20 -46 36 -56 20z"/>
<path d="M3496 2994 c-11 -7 -16 -17 -12 -21 4 -4 10 -3 14 3 4 6 14 13 22 16
7 2 10 7 4 10 -5 4 -18 0 -28 -8z"/>
<path d="M3660 3000 c0 -5 5 -10 10 -10 6 0 10 5 10 10 0 6 -4 10 -10 10 -5 0
-10 -4 -10 -10z"/>
<path d="M1514 2956 c1 -19 4 -32 8 -30 3 2 10 -10 13 -28 7 -32 72 -158 81
-158 3 0 -11 30 -30 68 -20 37 -43 93 -51 125 -9 31 -18 57 -19 57 -1 0 -2
-15 -2 -34z"/>
<path d="M1170 2970 c0 -5 5 -10 11 -10 5 0 7 5 4 10 -3 6 -8 10 -11 10 -2 0
-4 -4 -4 -10z"/>
<path d="M3596 2942 c-3 -6 -1 -14 5 -17 14 -9 20 -2 10 14 -6 8 -11 9 -15 3z"/>
<path d="M3670 2930 c0 -5 7 -10 16 -10 8 0 12 5 9 10 -3 6 -10 10 -16 10 -5
0 -9 -4 -9 -10z"/>
<path d="M1170 2863 c0 -13 5 -23 10 -23 13 0 13 11 0 30 -8 12 -10 11 -10 -7z"/>
<path d="M1710 2820 c0 -5 5 -10 10 -10 6 0 10 5 10 10 0 6 -4 10 -10 10 -5 0
-10 -4 -10 -10z"/>
<path d="M1055 2722 c-4 -4 -19 -7 -33 -7 -17 0 -28 -6 -28 -15 -1 -8 -2 -21
-3 -27 -2 -23 -31 -13 -42 13 -9 26 -10 26 -29 9 -10 -9 -23 -14 -28 -11 -5 3
-37 1 -72 -5 -79 -12 -286 -39 -362 -46 l-58 -5 0 -574 c0 -423 3 -575 12
-580 8 -5 9 0 6 14 -6 21 1 26 30 23 6 -1 12 8 12 19 0 12 5 18 10 15 6 -3 10
-18 10 -33 0 -24 4 -27 32 -27 17 0 33 -6 35 -13 3 -7 -3 -11 -14 -10 -50 4
-55 -1 -27 -25 l26 -23 -25 -11 c-23 -11 -26 -9 -31 13 -4 13 -11 24 -16 24
-6 0 -10 6 -10 14 0 9 -7 12 -20 9 -20 -5 -20 -7 -4 -24 9 -11 24 -19 33 -19
12 0 12 -3 3 -12 -14 -14 -16 -48 -3 -48 5 0 12 6 14 13 4 9 8 8 16 -3 12 -17
14 -41 4 -39 -22 4 -23 -3 -2 -20 l24 -20 -23 -8 c-22 -8 -22 -10 -8 -23 14
-11 18 -10 29 4 17 24 75 11 89 -20 6 -13 15 -24 20 -24 14 0 -10 37 -34 54
-12 9 -31 16 -41 16 -22 0 -33 27 -20 49 7 11 7 24 2 33 -7 12 -2 17 21 21 27
6 28 8 20 36 -6 23 -5 29 5 25 23 -9 27 16 9 44 -37 54 -51 124 -22 106 6 -4
5 3 -2 15 -6 12 -17 24 -25 27 -21 9 -25 31 -8 46 14 11 16 10 11 -7 -4 -16 0
-21 14 -22 18 -2 19 0 4 22 -18 27 -21 45 -7 45 5 0 11 -9 14 -21 3 -12 13
-20 24 -19 31 4 39 0 23 -10 -8 -5 -11 -12 -7 -16 3 -4 14 -1 23 7 13 11 18
11 21 2 4 -10 9 -10 24 0 21 13 25 27 8 27 -7 0 -17 7 -23 15 -10 13 -14 13
-38 1 -19 -10 -30 -11 -34 -4 -8 12 14 28 39 28 22 0 22 9 0 26 -14 9 -21 10
-32 1 -12 -10 -13 -8 -8 15 9 34 -28 75 -50 57 -10 -9 -13 -7 -13 9 0 14 5 20
14 16 7 -3 16 2 19 10 4 9 12 16 18 16 8 0 8 -4 -1 -15 -7 -9 -11 -17 -9 -18
2 -1 13 -9 23 -17 18 -14 19 -13 12 13 -5 23 -3 27 14 27 15 0 20 -7 20 -27 1
-24 2 -26 11 -10 6 9 7 27 3 40 -6 18 -4 20 7 10 9 -7 16 -34 17 -64 1 -29 7
-56 14 -60 9 -6 8 -11 -2 -23 -7 -9 -10 -19 -7 -22 9 -9 27 5 27 22 0 8 10 14
23 14 12 0 17 4 12 8 -6 4 -10 13 -9 20 1 6 2 17 3 22 0 6 6 10 12 10 6 0 9
-9 6 -19 -3 -14 -1 -18 9 -14 19 7 17 -7 -4 -40 -10 -15 -22 -24 -26 -20 -4 4
-4 0 0 -10 4 -11 1 -17 -7 -17 -7 0 -10 -3 -6 -6 3 -3 -5 -17 -18 -30 -27 -27
-85 -44 -85 -25 0 6 -4 11 -10 11 -13 0 -13 -37 0 -45 13 -8 13 -75 0 -75 -5
0 -10 -7 -10 -15 0 -9 9 -15 25 -15 15 0 25 -6 25 -14 0 -8 7 -16 15 -20 16
-6 21 -26 7 -26 -5 0 -19 10 -32 22 -13 12 -21 15 -18 7 3 -8 -2 -20 -11 -27
-14 -12 -13 -13 6 -9 12 3 24 0 26 -6 2 -7 10 -7 23 -2 10 4 35 10 54 12 19 2
45 9 57 15 31 15 38 5 18 -26 -16 -23 -18 -24 -33 -9 -9 9 -18 11 -20 5 -1 -5
-12 -8 -22 -5 -22 6 -26 -7 -9 -24 8 -8 8 -13 0 -18 -13 -7 10 -35 29 -35 7 0
32 20 55 44 25 25 46 39 48 32 6 -14 -26 -56 -42 -56 -6 0 -11 -4 -11 -10 0
-6 26 -10 58 -10 51 0 172 -28 172 -40 0 -3 -64 -6 -142 -8 -78 -2 -148 -8
-154 -13 -8 -7 -14 -6 -19 1 -8 13 -25 13 -25 0 0 -5 5 -10 11 -10 6 0 17 -7
26 -16 13 -13 14 -19 3 -42 -16 -32 -14 -51 6 -72 13 -13 14 -13 8 3 -3 10 -1
17 5 17 6 0 11 9 11 20 0 11 -4 20 -10 20 -5 0 -10 5 -10 11 0 8 5 8 15 -1 8
-7 21 -10 30 -7 8 4 17 2 21 -4 4 -6 11 -6 20 2 12 10 14 8 10 -12 -3 -13 -5
-30 -5 -36 -1 -7 -5 -12 -10 -10 -5 1 -16 -7 -24 -18 -9 -11 -19 -17 -23 -12
-4 4 2 21 15 37 16 23 18 30 7 30 -18 0 -22 -6 -30 -47 -6 -26 -4 -32 14 -38
12 -4 19 -14 18 -23 -2 -13 4 -17 27 -16 17 1 41 2 54 3 20 1 21 3 11 16 -11
13 -8 15 15 15 23 0 26 -2 15 -15 -16 -19 -6 -20 13 0 11 11 22 12 48 5 21 -6
46 -6 69 0 74 21 85 16 186 -80 54 -52 100 -88 106 -84 6 4 8 3 5 -3 -4 -6 11
-24 33 -42 37 -30 39 -30 45 -10 4 11 1 27 -7 37 -9 13 -7 12 10 -2 12 -11 22
-25 22 -32 0 -7 5 -16 11 -20 9 -5 10 1 5 19 -5 21 -3 25 9 21 11 -5 13 -2 9
10 -3 9 -2 16 4 16 17 0 23 -32 10 -48 -11 -13 -10 -14 11 -7 19 6 23 4 18 -8
-3 -9 1 -18 9 -21 8 -3 14 -3 14 1 0 10 -60 112 -132 226 -37 59 -68 112 -68
117 0 5 -33 28 -72 51 -40 23 -91 56 -113 74 -98 78 -178 125 -211 125 -22 0
-34 5 -34 14 0 31 103 44 145 19 17 -10 54 -31 83 -48 30 -16 83 -50 120 -74
91 -59 461 -246 470 -237 4 4 -10 21 -30 38 -21 16 -61 57 -89 91 -70 86 -250
268 -302 306 -23 17 -64 47 -91 67 -60 44 -92 54 -173 54 -70 0 -93 -6 -93
-25 0 -15 13 -20 73 -31 63 -11 29 -22 -88 -29 -127 -7 -145 -11 -145 -31 0
-11 -6 -13 -20 -9 -16 5 -20 2 -20 -14 0 -24 -7 -25 -47 -11 -26 9 -27 9 -9
-5 11 -8 27 -15 35 -15 14 0 14 -1 1 -10 -28 -18 -51 -11 -63 20 -6 17 -15 30
-19 30 -4 0 -8 5 -8 10 0 6 6 10 14 8 8 -2 15 2 15 7 0 6 -7 9 -15 7 -23 -5
-16 14 12 33 21 13 28 14 34 5 8 -14 45 -10 148 12 55 12 57 14 42 38 -8 12
-21 10 -96 -14 -78 -25 -88 -27 -102 -12 -18 18 -19 18 73 36 33 6 85 20 115
30 30 11 79 24 108 30 56 12 66 25 30 39 -23 9 -23 9 5 20 16 6 45 11 65 11
20 1 51 7 67 15 29 14 28 14 -26 9 -41 -4 -59 -2 -65 7 -5 8 -1 17 11 23 42
25 115 87 115 99 0 8 -3 8 -8 2 -17 -24 -66 -55 -88 -55 -13 0 -51 -14 -84
-31 -48 -24 -64 -28 -75 -19 -11 9 -18 9 -30 -3 -8 -9 -15 -20 -15 -25 0 -13
-50 -65 -56 -59 -3 3 -1 14 5 25 13 25 14 32 2 32 -5 0 -16 -16 -25 -35 -9
-19 -21 -35 -26 -35 -12 0 -12 2 0 36 9 24 7 31 -16 55 -26 27 -27 56 -2 31 9
-9 16 -8 30 5 10 9 18 11 18 6 0 -6 -7 -13 -15 -17 -25 -9 -17 -25 14 -24 15
1 33 -2 40 -6 6 -4 11 -1 11 8 0 9 -7 16 -16 16 -13 0 -14 3 -5 13 13 16 5 27
-19 27 -10 0 -23 6 -29 13 -9 11 19 43 134 152 80 76 145 144 145 150 0 7 -9
20 -21 31 -20 18 -21 18 -35 0 -19 -26 -25 -17 -27 38 -2 39 -5 46 -22 45 -11
0 -14 -3 -7 -6 20 -8 14 -27 -21 -71 -33 -43 -157 -142 -176 -142 -25 0 -8 29
45 76 31 27 62 53 70 57 14 8 20 37 8 37 -20 0 -220 -64 -222 -71 -2 -5 -10
-9 -18 -9 -20 0 -18 -37 3 -48 14 -9 14 -10 -6 -17 -11 -3 -19 -11 -16 -16 4
-5 -1 -9 -9 -9 -9 0 -16 5 -16 11 0 6 -9 8 -20 4 -18 -6 -19 -4 -10 20 16 41
120 131 135 117 5 -4 5 -2 1 5 -4 7 2 14 15 18 11 4 18 9 15 12 -3 3 -17 -2
-30 -11 -14 -9 -37 -16 -51 -16 -14 0 -44 -9 -66 -21 -22 -11 -53 -19 -67 -17
-25 3 -27 7 -30 59 l-3 56 108 52 c59 29 147 68 195 87 110 42 148 61 173 88
11 11 19 21 17 21 -2 0 2 14 9 30 l13 30 4 -25 c4 -27 22 -53 22 -32 0 7 9 21
20 32 12 12 18 25 15 30 -4 6 1 17 9 26 9 8 16 24 16 34 0 19 -23 33 -35 22z
m-140 -104 c6 -30 4 -38 -8 -38 -21 0 -46 32 -29 37 6 3 12 16 12 31 0 36 17
16 25 -30z m-265 -38 c0 -5 -7 -10 -15 -10 -8 0 -15 5 -15 10 0 6 7 10 15 10
8 0 15 -4 15 -10z m-62 -91 c-2 -6 -8 -10 -13 -10 -5 0 -11 4 -13 10 -2 6 4
11 13 11 9 0 15 -5 13 -11z m-108 -94 c0 -8 -9 -15 -20 -15 -11 0 -20 7 -20
15 0 8 9 15 20 15 11 0 20 -7 20 -15z m-32 -57 c-6 -18 -28 -21 -28 -4 0 9 7
16 16 16 9 0 14 -5 12 -12z m12 -98 c0 -5 -4 -10 -10 -10 -5 0 -10 5 -10 10 0
6 5 10 10 10 6 0 10 -4 10 -10z m250 -118 c0 -21 -34 -52 -56 -52 -14 0 -22 4
-19 10 3 6 14 10 24 10 10 0 21 9 24 20 5 19 27 29 27 12z m-170 -356 c18 -7
28 -16 22 -20 -17 -10 -62 4 -62 20 0 17 0 17 40 0z m440 -16 c0 -5 -19 -14
-42 -21 -24 -6 -56 -19 -73 -29 -37 -23 -135 -31 -135 -11 0 11 119 51 156 52
16 0 38 4 49 9 27 12 45 12 45 0z m-452 -29 c3 -8 -1 -12 -9 -9 -7 2 -15 10
-17 17 -3 8 1 12 9 9 7 -2 15 -10 17 -17z m127 -121 c-3 -5 -12 -10 -20 -10
-8 0 -17 5 -20 10 -4 6 5 10 20 10 15 0 24 -4 20 -10z m265 -60 c0 -5 -2 -10
-4 -10 -3 0 -8 5 -11 10 -3 6 -1 10 4 10 6 0 11 -4 11 -10z m-392 -36 c-10
-10 -28 6 -28 24 0 15 1 15 17 -1 9 -9 14 -19 11 -23z m312 6 c0 -5 -2 -10 -4
-10 -3 0 -8 5 -11 10 -3 6 -1 10 4 10 6 0 11 -4 11 -10z m-5 -49 c-3 -6 -11
-11 -17 -11 -6 0 -6 6 2 15 14 17 26 13 15 -4z m-45 -191 c0 -19 -5 -24 -32
-27 -29 -3 -40 20 -15 30 21 9 47 7 47 -3z m140 -50 c-19 -13 -30 -13 -30 0 0
6 10 10 23 10 18 0 19 -2 7 -10z m50 -43 c0 -4 -9 -3 -20 3 -11 6 -20 15 -20
20 0 6 9 5 20 -2 11 -7 20 -16 20 -21z m-47 6 c4 -3 5 -8 2 -13 -6 -10 -45 9
-45 22 0 7 22 2 43 -9z m112 7 c3 -5 2 -10 -4 -10 -5 0 -13 5 -16 10 -3 6 -2
10 4 10 5 0 13 -4 16 -10z m-95 -50 c-20 -13 -33 -13 -25 0 3 6 14 10 23 10
15 0 15 -2 2 -10z m-135 -20 c-3 -5 -11 -10 -16 -10 -6 0 -7 5 -4 10 3 6 11
10 16 10 6 0 7 -4 4 -10z m165 0 c0 -5 -5 -10 -11 -10 -5 0 -7 5 -4 10 3 6 8
10 11 10 2 0 4 -4 4 -10z m-138 -20 c-21 -20 -42 -26 -42 -12 0 7 37 28 54 31
6 0 0 -8 -12 -19z m568 -140 c0 -5 -4 -10 -10 -10 -5 0 -10 5 -10 10 0 6 5 10
10 10 6 0 10 -4 10 -10z m-50 -9 c0 -5 -11 -8 -25 -8 -13 0 -22 3 -19 8 3 5
14 9 25 9 10 0 19 -4 19 -9z m10 -31 c0 -5 -5 -10 -11 -10 -5 0 -7 5 -4 10 3
6 8 10 11 10 2 0 4 -4 4 -10z m78 -6 c-9 -10 -21 -13 -29 -8 -9 5 -8 9 7 15
31 12 39 10 22 -7z m-58 -34 c0 -5 -4 -10 -10 -10 -5 0 -10 5 -10 10 0 6 5 10
10 10 6 0 10 -4 10 -10z"/>
<path d="M3888 2681 c-56 -8 -59 -10 -64 -53 -7 -49 34 -81 226 -178 91 -46
177 -92 193 -103 l28 -19 -3 148 -3 148 -70 17 c-38 10 -95 24 -125 33 -57 16
-102 18 -182 7z m12 -105 c0 -3 -4 -8 -10 -11 -5 -3 -10 -1 -10 4 0 6 5 11 10
11 6 0 10 -2 10 -4z"/>
<path d="M1370 2671 c0 -17 18 -21 24 -6 3 9 0 15 -9 15 -8 0 -15 -4 -15 -9z"/>
<path d="M1005 2400 c-4 -6 8 -10 29 -10 20 0 36 5 36 10 0 6 -13 10 -29 10
-17 0 -33 -4 -36 -10z"/>
<path d="M1180 2400 c0 -5 5 -10 10 -10 6 0 10 5 10 10 0 6 -4 10 -10 10 -5 0
-10 -4 -10 -10z"/>
<path d="M870 2340 c-9 -6 -10 -10 -3 -10 6 0 15 5 18 10 8 12 4 12 -15 0z"/>
<path d="M4000 2332 c0 -12 24 -22 52 -22 10 0 25 -6 32 -13 23 -23 105 -170
100 -179 -3 -5 -18 1 -34 12 -15 11 -32 20 -37 20 -4 0 -53 27 -108 61 -66 39
-107 58 -120 55 -11 -3 -35 -6 -52 -6 -20 0 -33 -5 -33 -13 0 -7 81 -67 180
-132 101 -68 180 -127 180 -135 0 -8 -16 -36 -35 -62 -40 -54 -115 -88 -196
-88 -59 0 -100 17 -78 32 11 8 10 9 -3 4 -12 -3 -18 0 -18 9 0 8 -5 15 -11 15
-7 0 -5 -10 5 -25 35 -54 -10 -55 -76 -3 -27 21 -38 25 -38 15 0 -21 146 -157
169 -157 10 0 24 -6 31 -14 6 -8 26 -16 43 -18 19 -2 33 -9 35 -18 4 -22 -54
-53 -84 -46 -19 5 -24 3 -24 -12 0 -16 10 -20 63 -25 34 -3 71 -9 81 -13 15
-6 18 -4 13 9 -5 12 1 15 26 15 18 -1 42 3 55 7 16 5 22 3 22 -7 0 -11 -8 -14
-27 -12 l-28 4 27 -12 c15 -6 30 -18 33 -26 4 -11 -2 -12 -28 -7 -17 4 -36 11
-41 16 -12 11 -36 -8 -36 -30 0 -10 -3 -12 -8 -5 -4 7 -64 14 -152 18 -79 4
-147 9 -151 12 -4 2 -12 -3 -19 -11 -14 -17 -82 -20 -110 -5 -30 16 -34 -7 -5
-26 14 -9 42 -22 62 -29 47 -16 55 -35 14 -35 -17 0 -31 -4 -31 -10 0 -5 12
-10 28 -10 15 0 76 -9 135 -20 69 -13 115 -16 125 -11 12 6 24 3 41 -10 13
-10 34 -19 47 -19 28 0 42 -24 25 -44 -17 -21 0 -80 25 -85 25 -4 44 -20 44
-36 0 -19 -63 -47 -72 -32 -4 6 -10 8 -14 4 -9 -9 15 -37 32 -37 24 0 15 -28
-11 -34 -28 -7 -41 -5 -38 6 5 15 -12 7 -41 -18 -22 -19 -26 -28 -16 -34 7 -4
10 -12 7 -17 -3 -5 -2 -14 2 -21 5 -9 12 -7 25 7 10 11 15 25 11 30 -10 18
-25 12 -19 -6 5 -15 4 -15 -4 -3 -16 21 -8 27 49 34 56 8 74 -3 63 -36 -8 -27
5 -63 19 -49 8 8 16 6 30 -7 19 -16 20 -16 8 6 -6 12 -16 22 -22 22 -6 0 -8 9
-4 20 4 12 2 20 -5 20 -7 0 -10 6 -7 14 3 8 0 16 -6 19 -29 11 -1 97 31 97 13
0 3 77 -14 112 -30 59 -7 84 37 42 28 -27 29 -27 51 -8 21 18 21 18 15 0 -5
-12 -1 -23 10 -31 15 -11 15 -17 5 -40 -16 -35 -7 -45 16 -19 15 16 18 43 20
192 2 104 0 172 -6 172 -6 0 -13 7 -16 16 -4 12 -2 15 9 10 13 -5 15 32 15
299 l0 305 -82 41 c-46 22 -99 42 -118 44 -19 1 -43 6 -52 10 -10 4 -18 3 -18
-3z m128 -253 c41 -30 53 -49 32 -49 -6 0 -23 12 -39 28 -15 15 -36 32 -47 39
-15 9 -16 12 -3 12 8 1 34 -13 57 -30z m-8 -339 c0 -5 -2 -10 -4 -10 -3 0 -8
5 -11 10 -3 6 -1 10 4 10 6 0 11 -4 11 -10z m-6 -96 c10 -26 -1 -28 -25 -5
-22 21 -22 21 -2 21 11 0 24 -7 27 -16z m96 -24 c0 -5 -2 -10 -4 -10 -3 0 -8
5 -11 10 -3 6 -1 10 4 10 6 0 11 -4 11 -10z m-204 -15 c16 -12 16 -14 3 -15
-9 0 -22 7 -29 15 -16 19 0 19 26 0z m-115 -118 c-8 -8 -11 -7 -11 4 0 20 13
34 18 19 3 -7 -1 -17 -7 -23z m71 11 c-19 -20 -24 -21 -32 -8 -7 11 -4 17 13
22 39 11 42 9 19 -14z m45 -25 c-3 -3 -11 -2 -17 2 -8 5 -7 11 2 22 12 15 13
14 16 -1 2 -10 1 -20 -1 -23z m108 16 c4 -12 2 -26 -4 -32 -8 -8 -11 -7 -11 3
0 7 -7 22 -17 32 -15 17 -15 18 5 18 12 0 23 -9 27 -21z m73 -9 c7 0 12 -4 12
-10 0 -5 -6 -10 -14 -10 -8 0 -16 -6 -19 -12 -6 -19 14 -58 30 -58 8 0 11 -4
8 -10 -7 -12 -36 -14 -33 -2 4 12 -26 52 -39 52 -18 0 -16 17 3 24 11 4 15 14
11 31 -4 24 -3 24 13 10 9 -8 22 -15 28 -15z m-117 -12 c13 -24 2 -39 -12 -18
-8 12 -9 10 -7 -9 2 -13 -3 -26 -9 -28 -9 -3 -13 7 -14 29 0 30 -1 31 -9 10
-5 -12 -7 -29 -4 -37 4 -8 1 -15 -4 -15 -23 0 -23 40 0 69 25 30 42 30 59 -1z
m-96 -18 c-3 -5 -14 -10 -23 -10 -15 0 -15 2 -2 10 20 13 33 13 25 0z m159
-47 c4 -9 3 -19 0 -22 -4 -3 -9 0 -11 6 -3 10 -10 10 -24 2 -22 -11 -39 -5
-39 16 0 14 35 24 57 17 6 -2 14 -11 17 -19z"/>
<path d="M3805 2290 c8 -13 35 -13 55 0 11 7 5 10 -23 10 -23 0 -36 -4 -32
-10z"/>
<path d="M1470 2252 c0 -5 21 -16 48 -23 59 -16 65 -16 69 -3 2 7 -14 13 -39
17 -24 2 -51 8 -60 12 -10 4 -18 3 -18 -3z"/>
<path d="M4136 2167 c3 -10 9 -15 12 -12 3 3 0 11 -7 18 -10 9 -11 8 -5 -6z"/>
<path d="M1290 1960 c0 -7 -7 -10 -15 -7 -8 4 -17 2 -20 -3 -4 -6 5 -14 18
-19 13 -5 31 -17 41 -26 15 -16 18 -16 41 -1 28 19 31 29 12 45 -22 17 -77 26
-77 11z"/>
<path d="M922 1938 c-19 -19 -14 -29 8 -16 20 13 27 28 12 28 -4 0 -13 -5 -20
-12z"/>
<path d="M1060 1925 c0 -8 2 -15 4 -15 2 0 6 7 10 15 3 8 1 15 -4 15 -6 0 -10
-7 -10 -15z"/>
<path d="M980 1920 c-9 -6 -10 -10 -3 -10 6 0 15 5 18 10 8 12 4 12 -15 0z"/>
<path d="M3805 1920 c-3 -5 3 -10 14 -10 12 0 21 5 21 10 0 6 -6 10 -14 10 -8
0 -18 -4 -21 -10z"/>
<path d="M3870 1910 c8 -5 29 -10 45 -10 23 0 27 3 15 10 -8 5 -28 10 -45 10
-23 0 -27 -3 -15 -10z"/>
<path d="M3968 1903 c7 -3 16 -2 19 1 4 3 -2 6 -13 5 -11 0 -14 -3 -6 -6z"/>
<path d="M4000 1896 c0 -2 9 -6 20 -9 11 -3 18 -1 14 4 -5 9 -34 13 -34 5z"/>
<path d="M966 1874 c-6 -15 -4 -15 11 -3 10 7 20 15 22 16 2 2 -3 3 -11 3 -9
0 -19 -7 -22 -16z"/>
<path d="M1669 1795 c-13 -19 -32 -38 -41 -41 -10 -3 -18 -10 -18 -15 0 -12
48 17 79 49 15 15 20 27 14 33 -6 6 -19 -3 -34 -26z"/>
<path d="M610 1800 c0 -5 5 -10 11 -10 5 0 7 5 4 10 -3 6 -8 10 -11 10 -2 0
-4 -4 -4 -10z"/>
<path d="M646 1795 c4 -8 8 -15 10 -15 2 0 4 7 4 15 0 8 -4 15 -10 15 -5 0 -7
-7 -4 -15z"/>
<path d="M1090 1751 c0 -12 56 -25 70 -16 22 13 8 25 -30 25 -22 0 -40 -4 -40
-9z"/>
<path d="M1585 1720 c-3 -5 -1 -10 4 -10 6 0 11 5 11 10 0 6 -2 10 -4 10 -3 0
-8 -4 -11 -10z"/>
<path d="M1671 1687 c-13 -21 -12 -21 5 -5 10 10 16 20 13 22 -3 3 -11 -5 -18
-17z"/>
<path d="M3150 1646 c0 -4 9 -19 21 -35 l20 -28 -41 -129 c-26 -80 -64 -170
-101 -238 -33 -60 -58 -110 -57 -112 2 -2 16 8 32 21 40 34 196 81 196 59 0
-5 -13 -24 -28 -42 -15 -18 -36 -45 -45 -61 -17 -28 -16 -29 3 -24 12 3 20 14
21 27 0 21 0 20 9 -2 5 -12 16 -25 25 -28 8 -4 15 -12 15 -20 0 -8 4 -14 9
-14 5 0 8 7 7 16 -2 27 23 28 33 2 10 -22 10 -22 10 -1 1 12 -3 23 -9 25 -6 2
-4 18 4 41 l12 37 14 -25 c7 -14 15 -23 17 -21 3 2 0 14 -6 25 -10 18 -9 20 6
14 10 -3 23 -9 28 -14 6 -4 21 -9 35 -11 17 -2 26 -10 28 -24 3 -22 38 -39 47
-23 3 4 13 5 22 2 11 -4 14 -3 9 5 -4 7 -17 10 -32 6 -18 -5 -24 -2 -24 10 0
9 4 16 9 16 10 0 61 50 61 60 0 4 -12 12 -26 19 -39 18 -126 93 -117 102 9 9
175 -24 403 -81 85 -22 156 -37 158 -35 9 9 -39 95 -53 95 -8 0 -15 4 -15 8 0
19 14 19 46 0 19 -11 34 -15 34 -9 0 17 22 13 45 -9 25 -24 64 -18 44 6 -6 8
-8 14 -3 14 4 0 4 4 -1 9 -6 5 -41 12 -80 15 -77 7 -125 14 -320 50 -325 60
-458 115 -264 108 88 -3 87 -4 28 33 -31 19 -164 115 -196 141 -18 15 -33 24
-33 20z"/>
<path d="M1610 1609 c0 -5 5 -7 10 -4 6 3 10 8 10 11 0 2 -4 4 -10 4 -5 0 -10
-5 -10 -11z"/>
<path d="M1536 1579 c-36 -27 -40 -28 -52 -11 -7 9 -14 13 -14 9 0 -5 9 -20
19 -33 15 -19 20 -21 24 -9 4 8 24 23 47 35 22 11 38 25 35 30 -9 14 -16 12
-59 -21z"/>
<path d="M1410 1532 c6 -13 14 -21 18 -18 3 4 -2 14 -12 24 -18 16 -18 16 -6
-6z"/>
<path d="M1576 1469 c-15 -23 -33 -38 -40 -36 -7 3 -19 1 -27 -4 -9 -6 -4 -8
18 -5 36 4 63 22 63 42 0 7 10 20 22 28 17 12 18 16 7 16 -9 0 -28 -18 -43
-41z"/>
<path d="M400 1424 c0 -8 5 -12 10 -9 6 4 8 11 5 16 -9 14 -15 11 -15 -7z"/>
<path d="M591 1393 c-13 -14 -11 -19 15 -40 31 -25 74 -27 82 -5 4 12 0 12
-19 2 -17 -10 -24 -10 -27 -1 -2 6 -10 11 -18 11 -8 0 -14 7 -14 15 0 8 5 15
10 15 6 0 10 5 10 10 0 15 -23 11 -39 -7z"/>
<path d="M636 1384 c-3 -8 1 -15 9 -15 8 -1 20 -2 25 -3 18 -2 12 18 -8 25
-14 5 -22 3 -26 -7z"/>
<path d="M408 1384 c-5 -4 -8 -19 -8 -33 0 -18 3 -22 11 -14 6 6 9 21 7 33 -1
12 -6 18 -10 14z"/>
<path d="M550 1367 c0 -15 27 -43 34 -36 3 2 -4 15 -15 28 -13 16 -19 18 -19
8z"/>
<path d="M427 1316 c-6 -14 0 -26 14 -26 8 0 6 26 -3 35 -3 3 -8 -1 -11 -9z"/>
<path d="M606 1312 c-8 -14 16 -42 35 -42 9 0 8 4 -3 13 -9 6 -18 19 -20 27
-3 10 -6 11 -12 2z"/>
<path d="M4148 1303 c6 -2 10 -8 7 -13 -3 -4 2 -13 10 -20 12 -10 15 -9 15 8
0 18 -19 33 -38 31 -4 0 -1 -3 6 -6z"/>
<path d="M404 1261 c-1 -43 2 -47 26 -31 10 7 11 13 5 18 -6 4 -15 17 -20 30
-9 21 -10 19 -11 -17z"/>
<path d="M4200 1282 c0 -21 -33 -56 -43 -45 -4 3 -7 1 -7 -5 0 -7 7 -12 16
-12 18 0 11 -35 -14 -62 -14 -16 -14 -18 0 -18 9 0 18 -9 21 -20 3 -11 13 -20
22 -20 12 0 15 5 10 23 -4 12 -11 26 -16 32 -12 13 -11 45 1 45 6 0 15 -12 21
-27 6 -18 13 -23 17 -16 5 9 11 6 20 -7 7 -11 8 -20 3 -20 -11 0 -3 -38 10
-45 13 -9 5 101 -9 118 -8 9 -21 13 -34 10 -16 -5 -19 -2 -15 13 16 54 19 74
8 74 -6 0 -11 -8 -11 -18z"/>
<path d="M660 1240 c0 -11 5 -20 10 -20 6 0 10 9 10 20 0 11 -4 20 -10 20 -5
0 -10 -9 -10 -20z"/>
<path d="M497 1233 c-4 -3 -7 -17 -7 -30 0 -12 -4 -23 -10 -23 -5 0 -2 -8 8
-18 24 -26 31 -18 27 29 -4 44 -8 53 -18 42z"/>
<path d="M572 1221 c16 -25 31 -27 26 -4 -2 10 -11 19 -21 21 -16 3 -17 1 -5
-17z"/>
<path d="M626 1196 c6 -16 44 -39 44 -26 0 5 0 13 0 18 0 4 -11 10 -24 13 -17
5 -23 3 -20 -5z"/>
<path d="M3990 1201 c0 -6 5 -13 10 -16 6 -3 10 1 10 9 0 9 -4 16 -10 16 -5 0
-10 -4 -10 -9z"/>
<path d="M560 1176 c0 -16 28 -42 36 -33 3 3 -4 15 -15 26 -14 14 -21 17 -21
7z"/>
<path d="M406 1163 c-9 -23 1 -28 18 -10 13 13 13 16 2 20 -8 3 -17 -1 -20
-10z"/>
<path d="M640 1135 c0 -14 4 -25 9 -25 4 0 6 11 3 25 -2 14 -6 25 -8 25 -2 0
-4 -11 -4 -25z"/>
<path d="M455 1140 c3 -5 8 -10 11 -10 2 0 4 5 4 10 0 6 -5 10 -11 10 -5 0 -7
-4 -4 -10z"/>
<path d="M3520 1130 c0 -5 -9 -10 -20 -10 -25 0 -25 -9 -2 -26 14 -10 20 -10
35 3 9 9 19 14 22 11 10 -10 -7 -38 -24 -39 -9 0 -11 -3 -4 -5 13 -6 83 24 83
35 -1 6 -71 41 -83 41 -4 0 -7 -4 -7 -10z"/>
<path d="M480 1120 c0 -5 5 -10 10 -10 6 0 10 5 10 10 0 6 -4 10 -10 10 -5 0
-10 -4 -10 -10z"/>
<path d="M585 1111 c-10 -17 12 -21 25 -6 10 12 10 15 -3 15 -9 0 -18 -4 -22
-9z"/>
<path d="M675 1110 c-3 -5 -1 -10 4 -10 6 0 11 5 11 10 0 6 -2 10 -4 10 -3 0
-8 -4 -11 -10z"/>
<path d="M4131 1104 c0 -11 3 -14 6 -6 3 7 2 16 -1 19 -3 4 -6 -2 -5 -13z"/>
<path d="M431 1084 c0 -11 3 -14 6 -6 3 7 2 16 -1 19 -3 4 -6 -2 -5 -13z"/>
<path d="M540 1091 c0 -5 6 -14 14 -20 12 -10 13 -8 9 8 -5 21 -23 30 -23 12z"/>
<path d="M715 1090 c-3 -5 -1 -10 4 -10 6 0 11 5 11 10 0 6 -2 10 -4 10 -3 0
-8 -4 -11 -10z"/>
<path d="M3340 1095 c0 -2 10 -10 23 -16 20 -11 21 -11 8 4 -13 16 -31 23 -31
12z"/>
<path d="M470 1081 c0 -5 9 -19 20 -32 17 -21 19 -22 20 -6 0 12 -4 16 -12 11
-10 -6 -10 -4 0 8 10 13 10 17 -4 22 -21 8 -24 8 -24 -3z"/>
<path d="M4170 1083 c0 -5 5 -15 10 -23 8 -13 12 -13 27 3 17 17 17 18 1 11
-11 -3 -18 -1 -18 5 0 6 -4 11 -10 11 -5 0 -10 -3 -10 -7z"/>
<path d="M622 1065 c2 -12 -4 -25 -17 -33 -18 -12 -17 -13 14 -8 45 8 47 11
21 38 -20 21 -22 22 -18 3z"/>
<path d="M730 1050 c0 -5 5 -10 10 -10 6 0 10 5 10 10 0 6 -4 10 -10 10 -5 0
-10 -4 -10 -10z"/>
<path d="M3170 1050 c0 -5 5 -10 10 -10 6 0 10 5 10 10 0 6 -4 10 -10 10 -5 0
-10 -4 -10 -10z"/>
<path d="M3882 1029 c-23 -17 -42 -33 -42 -36 0 -3 10 2 23 11 12 9 32 21 45
28 12 6 22 15 22 20 0 12 -2 11 -48 -23z"/>
<path d="M4261 1044 c0 -11 3 -14 6 -6 3 7 2 16 -1 19 -3 4 -6 -2 -5 -13z"/>
<path d="M3117 1033 c-4 -3 -7 -11 -7 -17 0 -6 5 -5 12 2 6 6 9 14 7 17 -3 3
-9 2 -12 -2z"/>
<path d="M3530 1019 c0 -5 5 -7 10 -4 6 3 10 8 10 11 0 2 -4 4 -10 4 -5 0 -10
-5 -10 -11z"/>
<path d="M4017 1014 c-6 -10 9 -42 16 -34 3 3 1 14 -3 24 -3 11 -9 15 -13 10z"/>
<path d="M4050 1016 c0 -2 7 -9 15 -16 9 -7 15 -8 15 -2 0 5 -7 12 -15 16 -8
3 -15 4 -15 2z"/>
<path d="M4186 1002 c-4 -13 -5 -26 -2 -29 10 -11 18 4 14 29 l-4 23 -8 -23z"/>
<path d="M516 994 c-4 -9 -4 -19 -1 -22 2 -3 7 3 11 12 4 9 4 19 1 22 -2 3 -7
-3 -11 -12z"/>
<path d="M3170 1000 c0 -5 5 -10 10 -10 6 0 10 5 10 10 0 6 -4 10 -10 10 -5 0
-10 -4 -10 -10z"/>
<path d="M410 991 c0 -5 5 -13 10 -16 6 -3 10 -2 10 4 0 5 -4 13 -10 16 -5 3
-10 2 -10 -4z"/>
<path d="M4220 988 c0 -9 5 -20 10 -23 13 -8 13 5 0 25 -8 13 -10 13 -10 -2z"/>
<path d="M618 983 c6 -2 18 -2 25 0 6 3 1 5 -13 5 -14 0 -19 -2 -12 -5z"/>
<path d="M685 970 c3 -5 17 -10 29 -10 15 0 26 -7 28 -18 5 -19 50 -32 110
-32 15 0 34 -7 42 -16 9 -8 16 -11 16 -5 0 15 33 14 48 -1 9 -9 12 -9 12 0 0
16 29 15 35 0 3 -8 26 -13 62 -13 36 0 58 -4 60 -12 3 -8 14 -11 29 -7 23 6
24 4 19 -25 -3 -18 -1 -40 5 -49 9 -14 10 -12 7 11 -5 34 19 38 33 5 5 -13 9
-18 9 -11 1 20 -53 102 -71 108 -15 5 -142 29 -213 40 -24 4 -26 3 -10 -4 12
-6 15 -10 6 -10 -8 -1 -22 5 -30 13 -9 8 -54 22 -100 30 -96 18 -135 20 -126
6z"/>
<path d="M3070 951 c0 -5 7 -12 16 -15 14 -5 15 -4 4 9 -14 17 -20 19 -20 6z"/>
<path d="M665 940 c3 -5 8 -10 11 -10 2 0 4 5 4 10 0 6 -5 10 -11 10 -5 0 -7
-4 -4 -10z"/>
<path d="M1010 846 c0 -8 5 -18 10 -21 6 -3 10 3 10 14 0 12 -4 21 -10 21 -5
0 -10 -6 -10 -14z"/>
<path d="M1020 800 c0 -5 5 -10 10 -10 6 0 10 5 10 10 0 6 -4 10 -10 10 -5 0
-10 -4 -10 -10z"/>
<path d="M1526 801 c-5 -7 -5 -15 -2 -18 3 -3 1 -14 -5 -24 -6 -12 -6 -19 0
-19 5 0 12 8 15 18 3 9 4 2 2 -16 -3 -33 16 -62 28 -43 4 5 2 12 -4 16 -6 4
-8 10 -5 15 2 4 -1 25 -8 46 -9 25 -16 33 -21 25z"/>
<path d="M1495 790 c3 -5 8 -10 11 -10 2 0 4 5 4 10 0 6 -5 10 -11 10 -5 0 -7
-4 -4 -10z"/>
<path d="M1146 774 c-4 -9 -4 -19 -1 -22 3 -3 11 0 17 6 9 9 9 15 1 23 -7 7
-12 5 -17 -7z"/>
<path d="M1230 680 c0 -5 5 -10 10 -10 6 0 10 5 10 10 0 6 -4 10 -10 10 -5 0
-10 -4 -10 -10z"/>
</g>
</svg>
